<?xml version="1.0" encoding="utf-8"?>
<!DOCTYPE svg PUBLIC "-//W3C//DTD SVG 1.1//EN" "http://www.w3.org/Graphics/SVG/1.1/DTD/svg11.dtd">
<svg version="1.1" xmlns="http://www.w3.org/2000/svg" xmlns:xlink="http://www.w3.org/1999/xlink" x="0px" y="0px" viewBox="0 0 1000 1000" enable-background="new 0 0 1000 1000" xml:space="preserve">
<g><g transform="translate(0.000000,512.000000) scale(0.100000,-0.100000)"><path d="M3911.8,5003.1c-236.1-55.7-401.2-224.6-600.9-612.4c-145.9-284.1-253.4-378.2-645-572.1c-385.9-190.1-474.2-264.9-533.7-458.8c-21.1-69.1-38.4-149.7-38.4-180.4v-55.7h1977.3c1773.8,0,1979.2,3.8,1990.7,30.7c17.3,46.1-44.1,266.8-99.8,349.4c-69.1,105.6-172.8,172.8-493.4,328.3c-370.5,178.5-470.3,268.8-618.1,556.7c-136.3,264.9-259.2,430-387.8,514.5C4305.4,5007,4094.2,5045.4,3911.8,5003.1z M4151.8,4505.9c38.4-11.5,96-49.9,128.6-88.3c51.8-57.6,59.5-82.5,59.5-170.8c0-94.1-7.7-115.2-65.3-176.6c-57.6-63.3-74.9-71-178.5-78.7c-107.5-7.7-119-3.8-184.3,53.8c-184.3,161.3-92.1,437.7,159.3,478C4076.9,4525.1,4113.4,4515.5,4151.8,4505.9z"/><path d="M817.3,3893.5c-94.1-44.2-170.8-122.9-209.2-216.9c-26.9-63.3-30.7-468.4-30.7-3754.9c0-2731.7,5.8-3701.2,23-3749.2c34.6-101.7,86.4-167,184.3-222.7l90.2-53.7h1660.5h1660.5l99.8,268.8c53.7,147.8,99.8,274.5,99.8,284.1c1.9,7.7-706.4,13.4-1572.2,13.4H1249.2v3407.5v3407.5h268.8h268.8v44.2c0,65.3,65.3,245.7,120.9,332.1c25,40.3,94.1,120.9,153.6,176.6l107.5,99.8h-637.3C951.6,3930,886.4,3926.2,817.3,3893.5z"/><path d="M6125.2,3801.4c134.4-140.1,201.6-259.2,236.1-422.3l21.1-101.7h264.9h264.9V1175.2c0-1155.7,5.8-2102.1,15.4-2102.1c7.7,0,159.3,144,336,322.5l320.6,320.6v1929.3c0,1286.2-7.7,1954.2-21.1,2002.2c-25,94.1-120.9,201.6-218.8,245.7c-69.1,32.6-138.2,36.5-710.3,36.5h-635.4L6125.2,3801.4z"/><path d="M4374.5,576.3l-860-860L3220.7,10l-291.8,291.8L2660.2,33l-268.8-268.8l562.5-562.5l560.6-560.6L4641.3-231.9L5770.1,896.9l-268.8,268.8l-268.8,268.8L4374.5,576.3z"/><path d="M8640,238.4c-115.2-32.6-230.4-115.2-403.1-289.9l-144-145.9L8530.6-635l437.7-435.8l199.6,203.5c176.6,180.5,201.6,216.9,230.4,314.8c44.2,151.6,28.8,284.1-49.9,431.9C9204.4,152,8893.4,309.4,8640,238.4z"/><path d="M6238.5-2053.7L4710.4-3585.6l-168.9-591.3c-92.1-324.4-163.2-595.1-157.4-602.8c7.7-5.8,280.3,65.3,606.6,157.4l595.1,170.9l1531.9,1531.9l1531.9,1531.9l-431.9,431.9c-238.1,238-435.8,431.9-441.5,431.9C7770.4-523.7,7079.3-1212.9,6238.5-2053.7z M5088.6-3787.2c42.2-21.1,105.6-65.3,142.1-96c72.9-65.3,184.3-228.5,184.3-270.7c0-17.3-69.1-46.1-209.3-86.4l-211.2-59.5l-65.3,67.2l-65.3,65.3l53.8,186.2c67.2,224.6,71,232.3,84.5,232.3C5008-3748.8,5046.4-3766.1,5088.6-3787.2z"/><path d="M6969.9-3508.8l-604.7-606.6l462.6,5.8l462.7,5.8l94.1,57.6c69.1,44.2,107.5,86.4,147.8,163.2l51.8,105.6l-3.8,437.7l-5.7,435.8L6969.9-3508.8z"/></g></g>
</svg>
