<?xml version="1.0" encoding="utf-8"?>
<!-- Svg Vector Icons : http://www.onlinewebfonts.com/icon -->
<!DOCTYPE svg PUBLIC "-//W3C//DTD SVG 1.1//EN" "http://www.w3.org/Graphics/SVG/1.1/DTD/svg11.dtd">
<svg version="1.1" xmlns="http://www.w3.org/2000/svg" xmlns:xlink="http://www.w3.org/1999/xlink" x="0px" y="0px" viewBox="0 0 1000 1000" enable-background="new 0 0 1000 1000" xml:space="preserve">
<metadata> Svg Vector Icons : http://www.onlinewebfonts.com/icon </metadata>
<g><path d="M500,990c270.7,0,490-219.3,490-490c0-270.7-219.3-490-490-490C229.3,10,10,229.3,10,500C10,770.7,229.3,990,500,990z M500,541.2c-45.7,0-58.4-43.3-58.4-88.6l-24.1-200.1c0-45.7,36.7-82.5,82.5-82.5c45.7,0,82.5,36.7,82.5,82.5l-20.8,205C561.7,503.3,545.7,541.2,500,541.2z M582.5,747.4c0,45.7-36.8,82.5-82.5,82.5c-45.7,0-82.5-36.8-82.5-82.5c0-45.7,36.7-82.5,82.5-82.5C545.7,665,582.5,701.7,582.5,747.4z"/></g>
</svg>