<?xml version="1.0" encoding="utf-8"?>
<!DOCTYPE svg PUBLIC "-//W3C//DTD SVG 1.1//EN" "http://www.w3.org/Graphics/SVG/1.1/DTD/svg11.dtd">
<svg version="1.1" xmlns="http://www.w3.org/2000/svg" xmlns:xlink="http://www.w3.org/1999/xlink" x="0px" y="0px" viewBox="0 0 1000 1000" enable-background="new 0 0 1000 1000" xml:space="preserve">
<g><g><g><path d="M982.3,553.4L804.4,375.6V258.4c0-14.6-11.9-26.4-26.5-26.4c-14.6,0-26.5,11.8-26.5,26.4v64.4L626.1,197.3c-10.3-10.3-27.1-10.3-37.4,0L454.4,331.6c4.4,2.6,8.5,5.7,12.2,9.4l26.7,26.5l114-114l337.5,337.5c5.2,5.1,11.9,7.8,18.7,7.8c6.7,0,13.5-2.6,18.7-7.8C992.6,580.5,992.6,563.8,982.3,553.4z"/><path d="M906.6,583.8L626.1,303.3c-4.9-5-11.6-7.7-18.7-7.7c-7,0-13.7,2.8-18.7,7.7l-79.8,79.8l16.8,17c8.3,8.4,14.1,18.8,16.8,30c11.4,47.1-8.5,114-61.4,144.3c-11.5,6.5-30.3,14.3-54.6,14.3c0,0,0,0,0,0c-12.1,0-24.1-1.9-36-5.7l-15.8,19.6L466.6,717c10.7,13.3,15.5,30,13.7,46.9c-1.9,17-10.2,32.2-23.6,42.9c-1.6,1.3-3.2,2.5-4.9,3.6h48.9c17.7,0,34.8-7.5,46.9-20.6c11-11.9,17-27.3,17-43.4V645.9c0-24.4,18.7-44.8,42.9-47.1c24.2,2.3,42.8,22.7,42.8,47.1v100.5c0,16.1,6.1,31.5,17,43.4c12.1,13.1,29.2,20.6,46.9,20.6h136.9c35.2,0,63.9-28.7,63.9-64V609.7c0-4-0.4-8.1-1.2-12.1C912.9,592.3,910.4,587.6,906.6,583.8z"/><path d="M326.7,602.7l52.7-65.7c39.5,23.9,70.2,12.2,83.1,4.9c37.1-21.3,51.5-70,43.6-103c-1.2-4.8-3.7-9-7-12.4c-0.5,0.6-1,1.1-1.5,1.7l-47.5,47.5c-14.7,14.6-38.4,14.6-53,0l-6-6c-14.6-14.7-14.6-38.4,0-53l47.5-47.5c0.5-0.5,1.1-1,1.7-1.5c-3.3-3.3-7.5-5.8-12.4-7c-33-8-81.8,6.4-102.9,43.5c-8.3,14.4-21.8,51.1,14.9,97.5l-47.1,58.7l-92.9-116c11.7-11.1,23.2-22.2,31.9-31.2c5.6-5.8,12-8.6,19.7-8.6c6.3,0,11.1,2,11.1,2c0,0,0,0,0,0c7.2,3.3,15.6,1.1,20.2-5.2c4.6-6.3,4.2-15-1-20.9c-26.7-29.7-51.9-35.9-68.4-35.9c-20,0-33,8.9-34.5,9.9c-0.4,0.3-0.7,0.5-1.1,0.8l-84.6,71.7h-22c-4.1,0-8.1,1.5-11.1,4.3l-44.7,40.5c-3.4,3.1-5.3,7.4-5.4,12c-0.1,4.5,1.7,8.9,5,12.1l66.1,64.5c3.2,3.1,7.4,4.7,11.5,4.7c4,0,7.9-1.4,11.1-4.2l38.4-34.7c3.3-3,5.2-7.1,5.4-11.5l1-22.8c3.1-2.8,7.4-6.7,12.5-11.3l98,122.2L138,753.5c-9.2,11.4-7.3,28.1,4.1,37.2c4.9,3.9,10.7,5.8,16.5,5.8c7.8,0,15.4-3.4,20.6-9.9L292.8,645L396,773.6c5.2,6.5,12.9,9.9,20.7,9.9c5.8,0,11.6-1.9,16.5-5.8c11.4-9.1,13.2-25.8,4.1-37.2L326.7,602.7z"/></g></g><g></g><g></g><g></g><g></g><g></g><g></g><g></g><g></g><g></g><g></g><g></g><g></g><g></g><g></g><g></g></g>
</svg>