<?xml version="1.0" encoding="utf-8"?>
<!-- Svg Vector Icons : http://www.onlinewebfonts.com/icon -->
<!DOCTYPE svg PUBLIC "-//W3C//DTD SVG 1.1//EN" "http://www.w3.org/Graphics/SVG/1.1/DTD/svg11.dtd">
<svg version="1.1" xmlns="http://www.w3.org/2000/svg" xmlns:xlink="http://www.w3.org/1999/xlink" x="0px" y="0px" viewBox="0 0 1000 1000" enable-background="new 0 0 1000 1000" xml:space="preserve">
<metadata> Svg Vector Icons : http://www.onlinewebfonts.com/icon </metadata>
<g><path d="M973.6,884.2L762.6,686.3c121.7-167.2,102.7-402.7-52-547.9C543-18.7,279.8-10.3,122.6,157.3c-157.2,167.6-148.8,430.8,18.8,588c154.7,145.1,391,149.1,550.1,16.9l210.9,197.9c21,19.7,53.9,18.6,73.5-2.4C995.6,936.8,994.5,903.8,973.6,884.2L973.6,884.2z M189.4,694.1C50.1,563.4,43.1,344.6,173.8,205.3C304.4,66,523.3,59,662.6,189.7c139.3,130.7,146.3,349.5,15.6,488.8C547.6,817.7,328.7,824.7,189.4,694.1L189.4,694.1z"/><path d="M280.3,302.1c-10.4-10.4-27.3-10.4-37.7,0c-36.5,36.5-56.6,85-56.6,136.6c0,51.6,20.1,100.1,56.6,136.6c5.2,5.2,12,7.8,18.9,7.8s13.7-2.6,18.9-7.8c10.4-10.4,10.4-27.4,0-37.8c-26.4-26.4-40.9-61.5-40.9-98.8c0-37.4,14.5-72.4,40.9-98.9C290.7,329.4,290.7,312.5,280.3,302.1L280.3,302.1z"/><path d="M253.1,323.6"/></g>
</svg>