<?xml version="1.0" encoding="utf-8"?>
<!-- Svg Vector Icons : http://www.onlinewebfonts.com/icon -->
<!DOCTYPE svg PUBLIC "-//W3C//DTD SVG 1.1//EN" "http://www.w3.org/Graphics/SVG/1.1/DTD/svg11.dtd">
<svg version="1.1" xmlns="http://www.w3.org/2000/svg" xmlns:xlink="http://www.w3.org/1999/xlink" x="0px" y="0px" viewBox="0 0 1000 1000" enable-background="new 0 0 1000 1000" xml:space="preserve">
<metadata> Svg Vector Icons : http://www.onlinewebfonts.com/icon </metadata>
<g><g><path d="M10,501.5L10,501.5c0,0,0,0.1,0,0.2c0.1,3.7,0.5,7.3,1.3,10.9c0.2,1.7,0.4,3.5,0.6,5.5c0.2,1.8,0.4,3.7,0.7,5.8c0.4,2.5,0.7,5.1,1.1,7.8c0.8,5.5,1.7,11.6,2.8,18.1c1.3,6.2,2.7,12.8,4.2,20c0.7,3.6,1.7,7.2,2.7,10.9c1,3.7,2,7.6,3,11.5c0.5,2,1,4,1.6,5.9c0.6,2,1.3,4,1.9,6c1.3,4.1,2.6,8.2,4,12.4c0.3,1.1,0.7,2.1,1,3.2c0.4,1.1,0.8,2.1,1.2,3.2c0.8,2.1,1.6,4.3,2.4,6.4c1.6,4.3,3.3,8.7,5,13.2c1.9,4.4,3.8,8.8,5.7,13.3c1,2.2,2,4.5,2.9,6.8c1,2.3,2.2,4.5,3.3,6.8c2.2,4.5,4.5,9.1,6.8,13.7c2.4,4.6,5,9.1,7.5,13.7c1.3,2.3,2.6,4.6,3.9,6.9c1.3,2.3,2.8,4.5,4.2,6.8c2.8,4.5,5.7,9.1,8.5,13.7c12.1,18.1,25.5,36,40.4,52.9c15,16.8,31.3,32.8,48.5,47.5c17.4,14.5,35.7,27.7,54.3,39.3c18.8,11.5,37.9,21.4,56.8,29.8c4.8,2,9.5,3.9,14.2,5.8c2.4,0.9,4.7,1.9,7,2.8c2.4,0.8,4.7,1.7,7.1,2.5c4.7,1.6,9.3,3.3,13.9,4.8c4.6,1.4,9.2,2.7,13.7,4.1c2.3,0.6,4.5,1.4,6.7,1.9c2.2,0.5,4.5,1.1,6.7,1.6c4.4,1.1,8.7,2.1,13,3.2c4.3,0.8,8.5,1.6,12.7,2.4c2.1,0.4,4.1,0.8,6.2,1.2c1,0.2,2,0.4,3,0.6c1,0.1,2,0.3,3,0.4c4,0.6,7.9,1.1,11.8,1.6c1.9,0.3,3.8,0.5,5.7,0.8c1.9,0.3,3.7,0.4,5.6,0.5c3.7,0.3,7.2,0.6,10.7,0.9c3.5,0.3,6.8,0.7,10.1,0.7c0.2,0,0.4,0,0.7,0c0.6,33.3,27.8,60.1,61.2,60.1c0.5,0,1,0,1.6,0v0c0,0,0.1,0,0.2,0c3.7-0.1,7.3-0.5,10.9-1.3c1.7-0.2,3.5-0.4,5.5-0.6c1.8-0.2,3.7-0.4,5.8-0.7c2.5-0.4,5.1-0.7,7.8-1.1c5.5-0.8,11.6-1.7,18.1-2.8c6.2-1.3,12.8-2.7,20-4.2c3.6-0.7,7.2-1.7,10.9-2.7c3.7-1,7.6-2,11.5-3c2-0.5,4-1,5.9-1.6c2-0.6,4-1.3,6-1.9c4-1.3,8.2-2.6,12.4-4c1.1-0.3,2.1-0.7,3.2-1c1.1-0.4,2.1-0.8,3.2-1.2c2.1-0.8,4.3-1.6,6.4-2.4c4.3-1.6,8.7-3.3,13.1-5c4.4-1.9,8.8-3.8,13.3-5.7c2.2-1,4.5-2,6.8-2.9c2.3-1,4.5-2.2,6.8-3.3c4.5-2.2,9.1-4.5,13.7-6.8c4.6-2.4,9.1-5,13.7-7.5c2.3-1.3,4.6-2.6,6.9-3.9c2.3-1.3,4.5-2.8,6.8-4.2c4.5-2.8,9.1-5.7,13.7-8.6c18.1-12.1,35.9-25.5,52.9-40.4c16.8-15,32.8-31.3,47.5-48.5c14.5-17.4,27.7-35.7,39.3-54.3c11.5-18.8,21.4-37.9,29.8-56.8c2-4.8,3.9-9.5,5.8-14.2c0.9-2.4,1.9-4.7,2.8-7c0.8-2.4,1.7-4.7,2.5-7.1c1.6-4.7,3.3-9.3,4.8-13.9c1.4-4.6,2.7-9.2,4.1-13.7c0.6-2.3,1.4-4.5,1.9-6.7c0.5-2.2,1.1-4.5,1.6-6.7c1.1-4.4,2.1-8.7,3.2-13c0.8-4.3,1.6-8.5,2.4-12.7c0.4-2.1,0.8-4.1,1.2-6.2c0.2-1,0.4-2,0.6-3c0.1-1,0.3-2,0.4-3c0.6-4,1.1-7.9,1.6-11.8c0.3-1.9,0.5-3.8,0.8-5.7c0.3-1.9,0.4-3.7,0.5-5.6c0.3-3.7,0.6-7.2,0.9-10.7c0.3-3.5,0.7-6.8,0.7-10.1c0-0.5,0-1,0.1-1.5c33.7-0.1,61-27.5,61-61.2c0-0.5,0-1,0-1.6h0c0,0,0-0.1,0-0.2c-0.1-3.7-0.5-7.3-1.3-10.9c-0.2-1.7-0.4-3.5-0.6-5.5c-0.2-1.8-0.4-3.7-0.7-5.8c-0.4-2.5-0.7-5.1-1.1-7.8c-0.8-5.5-1.7-11.6-2.8-18.1c-1.3-6.2-2.7-12.8-4.2-20c-0.7-3.6-1.7-7.2-2.7-10.9c-1-3.7-2-7.6-3-11.5c-0.5-2-1-4-1.6-5.9c-0.6-2-1.3-4-1.9-6c-1.3-4.1-2.6-8.2-4-12.4c-0.3-1.1-0.7-2.1-1-3.2c-0.4-1.1-0.8-2.1-1.2-3.2c-0.8-2.1-1.6-4.3-2.4-6.4c-1.6-4.3-3.3-8.7-5-13.1c-1.9-4.4-3.8-8.8-5.7-13.3c-1-2.2-2-4.5-2.9-6.8c-1-2.3-2.2-4.5-3.3-6.8c-2.2-4.5-4.5-9.1-6.8-13.7c-2.4-4.6-5-9.1-7.5-13.7c-1.3-2.3-2.6-4.6-3.9-6.9c-1.3-2.3-2.8-4.5-4.2-6.8c-2.8-4.5-5.7-9.1-8.5-13.7c-12.1-18.1-25.5-35.9-40.4-52.9c-15-16.8-31.3-32.8-48.5-47.5c-17.4-14.5-35.7-27.7-54.3-39.3c-18.8-11.5-37.9-21.4-56.8-29.8c-4.8-2-9.5-3.9-14.2-5.8c-2.4-0.9-4.7-1.9-7-2.8c-2.4-0.8-4.7-1.7-7.1-2.5c-4.7-1.6-9.3-3.3-13.9-4.8c-4.6-1.4-9.2-2.7-13.7-4.1c-2.3-0.6-4.5-1.4-6.7-1.9c-2.2-0.5-4.5-1.1-6.7-1.6c-4.4-1.1-8.7-2.1-13-3.2c-4.3-0.8-8.5-1.6-12.7-2.4c-2.1-0.4-4.1-0.8-6.2-1.2c-1-0.2-2-0.4-3-0.6c-1-0.1-2-0.3-3-0.4c-4-0.6-7.9-1.1-11.8-1.6c-1.9-0.3-3.8-0.5-5.7-0.8c-1.9-0.3-3.7-0.4-5.6-0.5c-3.7-0.3-7.2-0.6-10.7-0.9c-3.5-0.3-6.8-0.7-10.1-0.7c-0.8,0-1.6-0.1-2.4-0.1C559.7,36.8,532.6,10,499.1,10c-0.5,0-1,0-1.6,0l0,0c0,0-0.1,0-0.2,0c-3.7,0.1-7.3,0.5-10.9,1.3c-1.7,0.2-3.5,0.4-5.5,0.6c-1.8,0.2-3.7,0.4-5.8,0.7c-2.5,0.4-5.1,0.7-7.8,1.1c-5.5,0.8-11.6,1.7-18.1,2.8c-6.2,1.3-12.8,2.7-20,4.2c-3.6,0.7-7.2,1.7-10.9,2.7c-3.7,1-7.6,2-11.5,3c-2,0.5-4,1-5.9,1.6c-2,0.6-4,1.3-6,1.9c-4.1,1.3-8.2,2.6-12.4,4c-1.1,0.3-2.1,0.7-3.2,1c-1.1,0.4-2.1,0.8-3.2,1.2c-2.1,0.8-4.3,1.6-6.4,2.4c-4.3,1.6-8.7,3.3-13.1,5c-4.4,1.9-8.8,3.8-13.3,5.7c-2.2,1-4.5,2-6.8,2.9c-2.3,1-4.5,2.2-6.8,3.3c-4.5,2.2-9.1,4.5-13.7,6.8c-4.6,2.4-9.1,5-13.7,7.5c-2.3,1.3-4.6,2.6-6.9,3.9c-2.3,1.3-4.5,2.8-6.8,4.2c-4.5,2.8-9.1,5.7-13.7,8.6c-18.1,12.1-36,25.5-52.9,40.4c-16.8,15-32.8,31.3-47.5,48.5c-14.5,17.4-27.7,35.7-39.3,54.3c-11.5,18.8-21.4,37.9-29.8,56.8c-2,4.8-3.9,9.5-5.8,14.2c-0.9,2.4-1.9,4.7-2.8,7c-0.8,2.4-1.7,4.7-2.5,7.1c-1.6,4.7-3.3,9.3-4.8,13.9c-1.4,4.6-2.7,9.2-4.1,13.7c-0.6,2.3-1.4,4.5-1.9,6.7c-0.5,2.2-1.1,4.5-1.6,6.7c-1.1,4.4-2.1,8.7-3.2,13c-0.8,4.3-1.6,8.5-2.4,12.7c-0.4,2.1-0.8,4.1-1.2,6.2c-0.2,1-0.4,2-0.6,3c-0.1,1-0.3,2-0.4,3c-0.6,4-1.1,7.9-1.6,11.8c-0.3,1.9-0.5,3.8-0.8,5.7c-0.3,1.9-0.4,3.7-0.5,5.6c-0.3,3.7-0.6,7.2-0.9,10.7c-0.3,3.5-0.7,6.8-0.7,10.1c0,0.5,0,1-0.1,1.6C36.3,439.9,10,466.8,10,500C10,500.5,10,501,10,501.5L10,501.5z M80.4,439.4c0-0.2,0.1-0.4,0.1-0.6c0.6-3.1,1.6-6.3,2.4-9.5c0.9-3.2,1.8-6.6,2.8-10c0.5-1.7,0.9-3.4,1.5-5.2c0.6-1.7,1.2-3.5,1.7-5.2c1.2-3.5,2.4-7.1,3.6-10.8c0.3-0.9,0.6-1.8,0.9-2.8c0.4-0.9,0.7-1.8,1.1-2.8c0.7-1.8,1.4-3.7,2.2-5.6c1.5-3.7,2.9-7.5,4.4-11.4c1.7-3.8,3.4-7.6,5.2-11.6c0.9-2,1.7-3.9,2.6-5.9c0.9-2,1.9-3.9,2.9-5.9c2-3.9,4-7.9,6-11.9c2.1-4,4.5-7.9,6.7-11.9c1.1-2,2.3-4,3.4-6c1.2-2,2.5-3.9,3.7-5.9c2.5-3.9,5-7.9,7.6-11.9c10.8-15.6,22.6-31,35.7-45.6c13.3-14.5,27.6-28.1,42.7-40.7c15.3-12.4,31.3-23.6,47.5-33.5c16.4-9.8,33.1-18,49.5-25.1c4.2-1.6,8.3-3.2,12.4-4.8c2-0.8,4-1.6,6.1-2.3c2.1-0.7,4.1-1.4,6.1-2c4.1-1.3,8-2.8,12-4c4-1.1,8-2.2,11.9-3.3c2-0.5,3.9-1.1,5.8-1.6c1.9-0.4,3.9-0.9,5.8-1.3c3.8-0.9,7.6-1.7,11.2-2.6c3.7-0.7,7.4-1.3,11-1.9c1.8-0.3,3.6-0.6,5.3-0.9c0.9-0.2,1.7-0.3,2.6-0.5c0.9-0.1,1.7-0.2,2.6-0.3c3.5-0.4,6.8-0.8,10.1-1.3c1.6-0.2,3.3-0.4,4.9-0.6c1.6-0.2,3.2-0.3,4.8-0.4c3.2-0.2,6.2-0.5,9.2-0.7c3-0.2,5.8-0.5,8.7-0.5c5.6-0.1,10.8-0.2,15.7-0.4c4.5,0.2,8.6,0.3,12.3,0.4c1.8,0.1,3.6,0.1,5.2,0.1c2,0.1,3.9,0.2,5.7,0.4c2,0.1,3.9,0.3,5.6,0.4c3.1,0.5,6.3,0.7,9.6,0.7c0.4,0,0.9,0,1.3,0c0.1,0,0.2,0,0.2,0v0c29.8-0.7,54.3-22.8,58.9-51.4c0.5,0.1,1,0.2,1.5,0.3c3.1,0.6,6.3,1.6,9.5,2.4c3.2,0.9,6.6,1.8,10,2.8c1.7,0.5,3.4,0.9,5.2,1.5c1.7,0.6,3.5,1.2,5.2,1.7c3.5,1.2,7.1,2.4,10.8,3.6c0.9,0.3,1.8,0.6,2.8,0.9c0.9,0.4,1.8,0.7,2.8,1.1c1.8,0.7,3.7,1.4,5.6,2.2c3.7,1.5,7.5,2.9,11.4,4.4c3.8,1.7,7.6,3.4,11.6,5.2c2,0.9,3.9,1.7,5.9,2.6c2,0.9,3.9,1.9,5.9,2.9c3.9,2,7.9,4,11.9,6c4,2.1,7.9,4.5,11.9,6.7c2,1.1,4,2.3,6,3.4c2,1.2,3.9,2.5,5.9,3.7c3.9,2.5,7.9,5,11.9,7.6c15.6,10.8,31,22.6,45.6,35.7c14.5,13.3,28.1,27.6,40.7,42.7c12.4,15.3,23.6,31.3,33.5,47.5c9.8,16.4,18,33.1,25.1,49.5c1.6,4.2,3.2,8.3,4.8,12.4c0.8,2,1.6,4,2.3,6.1c0.7,2.1,1.4,4.1,2,6.1c1.3,4.1,2.8,8,4,12c1.1,4,2.2,8,3.3,11.9c0.5,2,1.1,3.9,1.6,5.8c0.4,1.9,0.9,3.9,1.3,5.8c0.9,3.8,1.7,7.6,2.6,11.2c0.7,3.7,1.3,7.4,1.9,11c0.3,1.8,0.6,3.6,0.9,5.3c0.2,0.9,0.3,1.7,0.5,2.6c0.1,0.9,0.2,1.7,0.3,2.6c0.4,3.5,0.8,6.8,1.3,10.1c0.2,1.6,0.4,3.3,0.6,4.9c0.2,1.6,0.3,3.2,0.4,4.8c0.2,3.2,0.5,6.2,0.7,9.2c0.2,3,0.5,5.8,0.5,8.7c0.1,5.6,0.2,10.8,0.4,15.7c-0.2,4.5-0.3,8.6-0.4,12.3c-0.1,1.8-0.1,3.6-0.1,5.2c-0.1,2-0.2,3.9-0.4,5.7c-0.1,2-0.3,3.9-0.4,5.6c-0.5,3.1-0.7,6.3-0.7,9.6c0,0.4,0,0.9,0,1.3c0,0.1,0,0.2,0,0.2h0c0.7,29.4,22.2,53.7,50.4,58.7c-0.1,0.3-0.1,0.6-0.2,0.8c-0.6,3.1-1.6,6.3-2.4,9.5c-0.9,3.2-1.8,6.6-2.8,10c-0.5,1.7-0.9,3.4-1.5,5.2c-0.6,1.7-1.2,3.5-1.7,5.2c-1.2,3.5-2.4,7.1-3.6,10.8c-0.3,0.9-0.6,1.8-0.9,2.8c-0.4,0.9-0.7,1.8-1.1,2.8c-0.7,1.8-1.4,3.7-2.2,5.6c-1.5,3.7-2.9,7.5-4.4,11.4c-1.7,3.8-3.4,7.6-5.2,11.6c-0.9,2-1.7,3.9-2.6,5.9c-0.9,2-1.9,3.9-2.9,5.9c-2,3.9-4,7.9-6,11.9c-2.1,4-4.5,7.9-6.7,11.9c-1.1,2-2.3,4-3.4,6c-1.2,2-2.5,3.9-3.7,5.9c-2.5,3.9-5,7.9-7.6,11.9c-10.8,15.6-22.6,31-35.7,45.6c-13.3,14.5-27.6,28.1-42.7,40.7c-15.3,12.4-31.3,23.6-47.5,33.5c-16.4,9.8-33.1,18-49.5,25.1c-4.2,1.6-8.3,3.2-12.4,4.8c-2,0.8-4,1.6-6.1,2.3c-2.1,0.7-4.1,1.4-6.1,2c-4.1,1.3-8,2.8-12,4c-4,1.1-8,2.2-11.9,3.3c-2,0.5-3.9,1.1-5.8,1.6c-1.9,0.4-3.9,0.9-5.8,1.3c-3.8,0.9-7.6,1.7-11.2,2.6c-3.7,0.7-7.4,1.3-11,1.9c-1.8,0.3-3.6,0.6-5.3,0.9c-0.9,0.2-1.7,0.3-2.6,0.5c-0.9,0.1-1.8,0.2-2.6,0.3c-3.5,0.4-6.8,0.8-10.1,1.3c-1.6,0.2-3.3,0.4-4.9,0.6c-1.6,0.2-3.2,0.3-4.8,0.4c-3.2,0.2-6.2,0.5-9.2,0.7c-3,0.2-5.8,0.5-8.7,0.5c-5.6,0.1-10.8,0.2-15.7,0.4c-4.5-0.2-8.6-0.3-12.3-0.4c-1.8-0.1-3.6-0.1-5.2-0.1c-2-0.1-3.9-0.2-5.7-0.4c-2-0.1-3.9-0.3-5.6-0.4c-3.1-0.5-6.3-0.7-9.6-0.7c-0.4,0-0.9,0-1.3,0c-0.1,0-0.2,0-0.2,0v0c-29.7,0.7-54.1,22.6-58.8,51.1c-3.1-0.6-6.2-1.5-9.4-2.4c-3.2-0.9-6.6-1.8-10-2.8c-1.7-0.5-3.4-0.9-5.2-1.5c-1.7-0.6-3.5-1.2-5.2-1.7c-3.5-1.2-7.1-2.4-10.8-3.6c-0.9-0.3-1.8-0.6-2.8-0.9c-0.9-0.4-1.8-0.7-2.8-1.1c-1.8-0.7-3.7-1.4-5.6-2.2c-3.7-1.5-7.5-2.9-11.4-4.4c-3.8-1.7-7.6-3.4-11.6-5.2c-2-0.9-3.9-1.7-5.9-2.6c-2-0.9-3.9-1.9-5.9-2.9c-3.9-2-7.9-4-11.9-6c-4-2.1-7.9-4.5-11.9-6.7c-2-1.1-4-2.3-6-3.4c-2-1.2-3.9-2.5-5.9-3.7c-3.9-2.5-7.9-5-11.9-7.6c-15.6-10.7-31-22.6-45.6-35.7c-14.5-13.3-28.1-27.6-40.7-42.7c-12.4-15.3-23.6-31.3-33.5-47.5c-9.8-16.4-18-33.1-25.1-49.5c-1.6-4.2-3.2-8.3-4.8-12.4c-0.8-2-1.6-4-2.3-6.1c-0.7-2.1-1.4-4.1-2-6.1c-1.3-4.1-2.8-8-4-12c-1.1-4-2.2-8-3.3-11.9c-0.5-1.9-1.1-3.9-1.6-5.8c-0.4-1.9-0.9-3.9-1.3-5.8c-0.9-3.8-1.7-7.6-2.6-11.2c-0.7-3.7-1.3-7.4-1.9-11c-0.3-1.8-0.6-3.6-0.9-5.3c-0.2-0.9-0.3-1.7-0.5-2.6c-0.1-0.9-0.2-1.7-0.3-2.6c-0.4-3.5-0.8-6.8-1.3-10.1c-0.2-1.6-0.4-3.3-0.6-4.9c-0.2-1.6-0.3-3.2-0.4-4.8c-0.2-3.1-0.5-6.2-0.7-9.2c-0.2-3-0.5-5.8-0.5-8.7c-0.1-5.6-0.2-10.8-0.4-15.7c0.2-4.5,0.3-8.6,0.4-12.3c0.1-1.8,0.1-3.6,0.1-5.2c0.1-2,0.2-3.9,0.4-5.7c0.1-2,0.3-3.9,0.4-5.6c0.5-3.1,0.7-6.3,0.7-9.6c0-0.4,0-0.9,0-1.3c0-0.1,0-0.2,0-0.2h0C131.7,468.4,109.4,443.8,80.4,439.4L80.4,439.4z"/></g></g>
</svg>